<svg width="41" height="20" viewBox="0 0 41 20" fill="none" xmlns="http://www.w3.org/2000/svg">
<rect x="1.47211" y="0.5" width="38.7211" height="19" rx="9.5" fill="white" stroke="#BC9CFF"/>
<path d="M22.8893 13V6.3L23.2093 6.64H21.2393V6H23.6093V13H22.8893ZM25.1526 13V12.49L28.0626 9.64C28.3293 9.38 28.5293 9.15333 28.6626 8.96C28.796 8.76 28.886 8.57333 28.9326 8.4C28.9793 8.22667 29.0026 8.06333 29.0026 7.91C29.0026 7.50333 28.8626 7.18333 28.5826 6.95C28.3093 6.71667 27.9026 6.6 27.3626 6.6C26.9493 6.6 26.5826 6.66333 26.2626 6.79C25.9493 6.91667 25.6793 7.11333 25.4526 7.38L24.9426 6.94C25.216 6.62 25.566 6.37333 25.9926 6.2C26.4193 6.02667 26.896 5.94 27.4226 5.94C27.896 5.94 28.306 6.01667 28.6526 6.17C28.9993 6.31667 29.266 6.53333 29.4526 6.82C29.646 7.10667 29.7426 7.44333 29.7426 7.83C29.7426 8.05667 29.7093 8.28 29.6426 8.5C29.5826 8.72 29.4693 8.95333 29.3026 9.2C29.1426 9.44 28.906 9.71333 28.5926 10.02L25.9226 12.64L25.7226 12.36H30.0626V13H25.1526Z" fill="#BC9CFF"/>
<path d="M10.9024 13.8867L10.2969 13.3398C9.6068 12.7148 9.1055 12.2526 8.793 11.9531C8.4805 11.6536 8.12893 11.2826 7.73831 10.8398C7.3607 10.3971 7.10029 10 6.95706 9.64844C6.81383 9.28385 6.74222 8.91276 6.74222 8.53516C6.74222 7.89714 6.95706 7.35677 7.38675 6.91406C7.82945 6.47135 8.37633 6.25 9.02737 6.25C9.78258 6.25 10.4076 6.54297 10.9024 7.12891C11.3972 6.54297 12.0222 6.25 12.7774 6.25C13.4284 6.25 13.9688 6.47135 14.3985 6.91406C14.8412 7.35677 15.0625 7.89714 15.0625 8.53516C15.0625 9.04297 14.8933 9.57031 14.5547 10.1172C14.2162 10.6641 13.8451 11.1393 13.4414 11.543C13.0508 11.9466 12.4063 12.5521 11.5078 13.3594L10.9024 13.8867Z" fill="url(#paint0_linear_18384_115)"/>
<defs>
<linearGradient id="paint0_linear_18384_115" x1="10.9024" y1="0" x2="10.9024" y2="20" gradientUnits="userSpaceOnUse">
<stop stop-color="#BC9CFF"/>
<stop offset="1" stop-color="#8BA4F9"/>
</linearGradient>
</defs>
</svg>
